<svg width="182" height="34" fill="none" xmlns="http://www.w3.org/2000/svg"><path d="m1 26-1-5 1-6 3-4c3-3 7-4 11-4s8 1 11 3 5 5 5 9c0 5-1 8-4 11-2 2-6 3-11 3-8 0-13-2-15-7Zm3-6c0 7 4 10 12 10 4 0 7-1 9-3s4-5 4-8-2-5-5-7l-9-2c-3 0-5 1-8 3-2 2-3 4-3 7ZM53 24l-1-8h-5l-4 2-5 3v12h-3l-1-8a122 122 0 0 1 1-13h2l1 2v3c5-3 9-5 12-5 4 0 5 3 6 7v15h-2l-1-4v-6ZM95 26c2-4 4-13 6-26 2 0 3 1 3 2v2a296 296 0 0 1-6 29h-3l-1-1a162 162 0 0 0-8-14l-3-4a91 91 0 0 0-9 20h-3L58 8V7h1l2-1 1 1h1v3a83 83 0 0 1 3 6l2 3a175 175 0 0 0 4 7A297 297 0 0 1 82 8c1 0 4 2 7 8a160 160 0 0 1 6 10ZM125 26a15 15 0 0 1-12 7h-4l-1-1-2-2a7 7 0 0 1 0-5l2-3 3-4c3-2 6-4 9-4a12 12 0 0 1 4 0c2 0 3 1 4 3l1 6a860 860 0 0 0 0 10h-2a38 38 0 0 1-1-3l-1-4Zm0-7c0-1-1-2-3-2-3 0-5 1-8 3l-3 3-2 5 3 3c3 0 6-1 9-4l3-3 1-5ZM132 17v-2l1-1h1l1 1 8 14 1-2a552 552 0 0 0 11-14l1 1a1878 1878 0 0 1-12 20l-2-2-3-3-7-12ZM168 31l13-4h1v1c-1 2-4 4-8 5h-10c-3 0-6-2-6-5l-1-2 1-4 3-5a14 14 0 0 1 10-4 14 14 0 0 1 9 4 3 3 0 0 1 1 2c0 2-1 3-3 4h-10l-5 1-1 3c0 2 2 4 6 4Zm9-14-3-1h-4l-3 1-4 3h6l7-1 2-1-1-1Z" fill="#C62100"/></svg>