<svg width="168" height="32" fill="none" xmlns="http://www.w3.org/2000/svg"><path d="m1 24-1-5 1-5 3-4c3-2 6-3 10-3s7 0 10 2 5 5 5 9-2 7-4 9c-2 3-6 4-11 4-6 0-11-2-13-7Zm3-6c0 7 3 10 10 10 4 0 7-1 9-3s3-4 3-7-1-5-4-7l-8-2c-3 0-5 1-7 3l-3 6ZM49 22l-1-7h-5l-4 2-4 3v11h-3v-8a110 110 0 0 1 0-11l2-1 1 2v3c5-3 9-4 11-4 3 0 5 2 6 6v13l-1 1v-1h-2v-9ZM88 25l5-24 3 1v2a255 255 0 0 1-6 27h-2l-1-1a146 146 0 0 0-7-13l-4-4a83 83 0 0 0-8 18h-3L54 8V7h1l1-1 1 1h1v1l1 1a75 75 0 0 1 2 6l2 3a160 160 0 0 0 4 7 269 269 0 0 1 9-18l6 8a146 146 0 0 1 6 10ZM116 25a14 14 0 0 1-12 6h-1l-2-1h-2l-1-2a7 7 0 0 1 0-4l2-4 3-3 7-4a11 11 0 0 1 4 0c2 0 3 1 4 3l1 6a810 810 0 0 0 0 9h-2a35 35 0 0 1-1-4v-2Zm0-7c0-1-1-2-3-2h-1l-7 3-2 3c-2 1-2 3-2 4l3 3 8-4 2-3 2-4ZM122 16v-2h1l1-1 1 1 7 13 1-2a505 505 0 0 0 10-13l1 1v1a1580 1580 0 0 1-11 17l-2-1-3-3-6-11ZM155 28l12-3h1v1c-1 2-4 3-7 4-3 2-7 2-9 1-4-1-6-2-7-5v-2l1-4 3-4a13 13 0 0 1 9-4 13 13 0 0 1 8 4l1 2c0 2-1 3-2 3l-3 1-7-1-5 2-1 2c1 2 3 3 6 3Zm8-12-2-1h-4l-3 1-3 3h5l7-1 1-1-1-1Z" fill="#C62100"/></svg>