<svg width="16" height="30" fill="none" xmlns="http://www.w3.org/2000/svg"><path d="M13 1h1V0v1-1h1-1v1-1 1l-1 1V1Zm0 1h-1v1-1h1V1l-1 1h1Zm0 0Zm-3 22 1 1-1-1h1-1Zm4-22ZM9 23Zm2 1Zm-7-5Zm10 8v-1 1l-1-1 1 1ZM8 9Zm0 0Zm1 14 1 1-1-1ZM10 24h1-1Zm-5-5c-1 0 1 1 0 0H4h1-1l-1-2v1h1c-1 0 0 0 0 0v1h1l1 2v-1 1l2 1 1 1v-1l-3-2-1-1 1 1-1-1ZM7 21Zm-1-1Zm3 3h1-1Zm1 0v1-1Zm-8-7Z" fill="#202020"/><path d="M4 18h1l1 1v1h1v1-1 1l-1-1h1l-2-1-1-2v1Zm5 4Zm3 4-1-1c0-1 0 0 0 0l-2-2c1 0 0 0 0 0l1 1h1v1h1-1v-1 1l1 1Zm0 0ZM10 5Zm0 20Zm-3-3ZM8 6ZM1 16Zm6 6Zm4 4Zm0 0Zm5 2h-1 1Zm-5-2h1-1Zm0-22Zm0-1ZM1 13s1 0 0 0c1 0 1 0 0 0Zm9-8Zm0 0h1-1ZM1 15ZM11 3s1 0 0 0h1s0-1 0 0l-1 1 1-1h-1v1-1c1 0 0 0 0 0Zm0 1Zm4 25ZM11 4Zm3 24Zm-1 1Zm1-1Zm-6-6Zm1 1ZM1 13Zm13 15Zm-8-8Z" fill="#202020"/><path d="M5 20h1l-1-1v1h1c-1 0 0 0 0 0v1-1 1-1H5Zm1 0Zm-3-2v-1 1Zm8 6v1-1ZM4 11Zm1 9Zm-1-9h1-1Zm1 0Z" fill="#202020"/><path d="M11 24h-1l-1-1-1-1h1-1l-1-1s0-1 0 0v-1H6l-1-2H4v-1 1l-1-1v-1H2v-1H1h1-1l1-1 1-1h1-1 1v-1l1-1v1-1l1-1 2-2 2-1H9l2-1h-1l1-1 3-3-1 1 1-1 1-1V0a12 12 0 0 0 0 1v1l-1 1V2l-1 1h1-1v1h-1v1l-2 1h1-1v1L8 8h1-1 1-1v1H7h1l-1 1H6l-1 1-1 1-1 2v-1 1c0-1 0 0 0 0H2h1l-1 1 1 1c1 1 0 0 0 0H2h1l2 2 1 1s1 1 0 0l1 1v-1 1l1 1 1 1h1l1 2 1 1v-1h-1l1 1-1-1v-1 1l-1-1h1l-1-1H9v-1H8h1-1l1 1h1-1l1 1h1l1 1h-1l2 1v1c0-1 0 0 0 0 1 0 0 0 0 0h1-1v-1 1-1 1l1 1h1v1l1 1v-1h-1 1v2h-2v-1h-1 1-1 1v1h1-1v-1 1h2v-2 1-1h-1 1a1 1 0 0 1 0 1v-1 1a1 1 0 0 1 0 1 2 2 0 0 0 0-1v1a1 1 0 0 1-1 0h-1v-1h-1v-1l-2-2-2-2 1 1 1 1h-1c1 0 0-1 0 0h1v1h1l-1-1a5 5 0 0 0 0 1h1l-1-1-1-1-1-1-1-1 1 1H8v-1l1 1-1-1-1-1H6v-1l1 1v1l-1-1v-1 1h1l1 1-2-2-1-1H4c0-1 0 0 0 0v-1 1h1v1h1-1v-1 1h1l-1-1H4v-1H3s0-1 0 0h1-1v-1s0 1 0 0l-2-1v-1a24 24 0 0 0 1 1l1 1 1 1-2-2 1 1-1-1-1-1a1 1 0 0 1-1 0v-1 1h1-1v-2h1-1v1-1 1l1 1-1-1v-1h1v-1h1l1-1H2h1s0-1 0 0l2-2 1-1S5 9 6 9c0 0-1 0 0 0l1-1V7v1H6v1-1 1l1-1-1 1V8h1l1-1H7h1-1 1V6h1-1v1-1 1-1h1l1-1c-1 0 0 0 0 0V4h1V3v1l-1 1 1-1-1 1-1 1-1 1v1-1h1V6c0 1 0 0 0 0l1-1 1-1-1 1h1V4l1-1-1 1v1l-1 1V5v1c0-1 0 0 0 0-1 0 0 0 0 0H9v1H8v1L7 9s1-1 0 0H6v1-1 1l-1 1-1 1v-1s0 1 0 0c0 1 0 1 0 0v1l-2 1-1 1v1a1 1 0 0 1 0-1c1 0 0 0 0 0v1l1 1c-1-1-1-1 0 0l1 1 1 1s1 1 0 0l1 1 2 2 1 1v1-1l1 1s-1 0 0 0v1c0-1 0-1 0 0h1-1l-1-1 1 1h1l1 1-1-1 1 1 1 1 1 1 1 1-1-1a18 18 0 0 0 2 2v-1a5 5 0 0 1 0 1l-1-1h-1 1v-1c-1 0 0 1 0 0h-1l-1-1 1 1-2-2h1s-1 0 0 0l1 1-1-1v1l-1-1v-1Zm3-22v1-1Zm0 26v1h1v1a1 1 0 0 1 0-1h-1 1a23 23 0 0 0-1-1h-1 1Zm-1 0Zm0 0Zm0-2Zm0 1Zm2 2v-1 1ZM7 8v1l-1 1H5h1l1-2Zm-4 4-2 2h1-1 1v-1 1a21 21 0 0 0 0-1l1-1h1c-1 0 0 0 0 0v-1h1v-1l-1 1h1-1l1-1-1 1-1 1Zm6 11-2-1-1-1h1-1v-1l1 1v1-1H6h1l-1-1v1-1H5v-1l-1-1H3h1-1 1l-1-1v1-1 1l-1-1v-1H1s0-1 0 0v-1H0h1v1l1 1h1v1h1v1l2 2c0-1 1 0 0 0l1 1-1-1 2 2h1Zm1 2h1c-1 0-1 0 0 0v1-1 1l1 1v-1 1h1v1l-1-1v-1l-1-1h-1v-1 1-1 1c0-1 0-1 0 0Zm4 2Z" fill="#202020"/><path d="M11 4Zm0 0Zm1 0V3v1-1 1Zm-1 0h1-1ZM6 8Zm3 0 2-2-2 2Zm-8 6 1-1-1 1Zm0-1v1-1Zm3-1H3h1Zm-3 4Zm0 0Zm2-4h1-1Zm-1 2s-1 0 0 0Zm0 4h1-1Zm-1-3Zm2 3Zm0 0Zm1 1Zm4 4H7h1Zm-1 0v-1 1Zm-4-6 1 1H3v-1Zm5 7Zm0-2H7h1Zm1 3s0-1 0 0Zm-1-2Zm0-1c-1 0 0 0 0 0ZM8 22Zm3 4Zm-2-2v-1l1 1-1-1v1Zm4 4v1-1Zm0 1Zm-2-4Zm3 5v-1 1Zm2-2h-1 1Zm-2 1v-1 1-1 1ZM6 19l1 1H6h1l1 1-1-1c1 0 0 0 0 0l-1-1h1-1l-1-1-3-3 1 1 1 1 2 2-1-1 1 1H5h1c1 1 0 0 0 0Zm1 1 1 1-1-1ZM2 15Zm7 6ZM8 21Zm0 1H7h1Zm-2-2 1 1-1-1Zm0 1Zm-2-8ZM2 15c0-1 0-1 0 0v-1h1v-1l2-2c1 0 0 1 0 0l-1 1v1-1l-1 2 1-1-1 1H2v1Zm7-7Zm0 0H8h1-1 1ZM8 9c0-1 0-1 0 0V8v1Zm-2 2Zm0 0v-1 1Zm1-1Zm-1 0h1-1ZM6 11Zm-1 8H4h1Zm-2-1ZM2 17c0-1 1 0 0 0h1-1 1l-1-1v1Zm1 0Zm-1-3Zm0 0Zm0 0Zm5-5h1-1Zm6-5Zm1-3Zm0 0h1-1Z" fill="#202020"/></svg>