<svg width="100" height="36" fill="none" xmlns="http://www.w3.org/2000/svg"><path d="M61 1h3l-2 6-2 7 3-1 2-1h1v3l2-2 3-1h2v1l-2 1-2 7v1h2l1-1 2-7v-1l-1-1h2l1 1 1 1-2 5h1l3-1 1-5 1-1h3l-1 2 2-1 3-1 1 1v2l1-1 1-2h9v2l-1 4-1 1h-5l-1 2v1h3l1-1h2l-1 2v1h-2l-6-1h-1v-2l2-4v-1l-2 1-1 3-3 12v1l1-1v-1h2l-1 1-1 3h-1l-1 1h-2l-2-1 1-1 5-16v-2h-1l-2 1-1 6h-4l1-3-3 1-1 2h-8v-2l1-3v-2l-2 1-2 6h-3v-2l2-5v-1h-2l-1 1-1 5-1 2h-3l1-3-3 1-1 2-2 1-3-1v1l-3 8v3h-4l1-3 4-14-6 5h-2v-3l-2 1-2 2h-4l-1 1-3 11h-4l1-1 3-10v-2l-8 2h-6l-3-2c-2-2-2-4-3-7v-1H0v-1l1-1h4v-1l3-5 4-4 6-1 9 4-2 1v1l-1-1-2-1c-2-1-5-2-7-1l-3 2-2 5v1h15l-1 2H9l1 3c0 2 2 4 4 4h8l3-1v-1l2-6v-1h4l-1 2-2 7v1h2v-1l2-8v-1h3v1l-1 6h1l2-1v-2l1-3 1-1h3v2a154 154 0 0 0-1 4l3-3h1l1-3h3v1l-2 7-1 2h2l1-2a319 319 0 0 0 1-8h3l1 1-1 5-1 1h2l1-1 2-6 4-11Zm33 13-1 3 1 1h1l1-3v-1h-2Z" fill="#010101"/></svg>