<svg width="100" height="66" fill="none" xmlns="http://www.w3.org/2000/svg"><path d="M10 31c1 1 2 2 1 3l-7 3c-2 0-4-2-4-5l3-4 16-14 6-1a502 502 0 0 0 4 13l3-1 1 2-6 5-4 30-4 4c-2 0-5 0-4-2l5-26-1-1c0 1-2 3-4 3-2 1-4-1-4-1v-1l11-8a326 326 0 0 0-1-11L10 29v2Z" fill="#000"/><path d="m36 31 2-1 1-2-2-1c-2 0-4 0-8 5l1 4c1 0 2 1 1 2 0 1-2 4 0 6s5 0 6-2l4-6h1l1 4c0 1 1 1 1-1l4-7c0-1 0-1 0 0l1 4c1 1 2 2 3 1 2-1 2-3 2-4h1c0 2 5 4 7-3h1l1 2c1-1 4-2 5-5h1c0 1 1 2 3 1 1 0 3-2 4-5l5-10 1 1c0 1-2 6 0 8 3 2 7-1 8-3l9-8c0-1 0-2-2-1l-8 7c-1 1-3 3-4 2v-4l2-5-1-2-2 1h-1l-1-4c-1-1-3 0-4 1-1 2-2 5 0 6v1l-4 9-3 3c-1-1 0-3 3-6a1 1 0 0 0 0-2h-2l-1 1h-2l3-3h1l2-1 1-1-1-2c-1 0-3 0-6 3l-3 4c0 1 0 2 3 2v1l-2 2-2 4h-2v-4a426 426 0 0 0 4-23c-1 0-4 2-5 8l-2 10c-2 0-4 2-5 5l-3 8c0 2-1 3-2 3v-5l1-5-1-2s-4 2-5 7h-1l-1-2s-2 0-3 2l-4 9c-1 3-3 4-3 3l1-4c1-1 3-2 2-3h-3l-2 1c-1-1 0-2 1-3s2-2 3-1Z" fill="#000"/><path d="m61 22-4 4 1 4 2-4 1-4Z" fill="#fff"/><path d="M90 5c0-2 2-4 3-4 2 0 4 2 4 4s-2 3-4 3c-1 0-3-1-3-3Z" fill="#000"/><path d="m93 7 2-1 1-2c0-2-1-3-3-3-1 0-2 1-2 3v1l1 1v1h1Z" fill="#fff"/><path d="M93 6h-1V2h2l1 1-1 1 1 2h-1l-1-2v2Z" fill="#000"/><path d="m94 4 1-1h-2v1h1Z" fill="#fff"/></svg>