<svg width="100" height="26" fill="none" xmlns="http://www.w3.org/2000/svg"><path d="M14 26v-4l1-5v-2l-1 3c-2 4-4 6-6 7l-5 1c-3-1-4-6-2-8 2-1 6-1 5 1H5l-2 1v1l1 2c1 1 3 1 4-1l6-10 5-10 2-2v3l-3 10v2l2-3 8-10 2-2a8753 8753 0 0 1-2 6l-6 16c1 2 1 2 3 1l3-3c1-3 4-5 7-5h4l-1 3a181 181 0 0 1-2 5l6-6v-7l2-1 1 1 1 1v3l2 2-2 2c-3 4-3 6-1 5l6-6 4-4 2 1-1 1-1 2v3l1 1 1-1 2-2 5-11h2l-2 6-1 3 1-1h2l1 2-2 5v1l2-3 5-5h8l-2 4-2 3h2l3-3c2-5 5-10 8-12 2-1 4-1 4 1l-3 5-5 6c-3 1-3 1-3 3l1 2c2-1 4-3 5-6l4-6 6-5h2l-2 5-6 7c-2 1-3 2-2 4 0 1 2 1 4-2l2-2c1 1 0 2-1 3-1 2-3 4-5 4l-3-2h-1l-4 2-2-1v-1h-1l-1 1h-5l-2 1-3-1-1-1-1 1-3 1-2-2 2-4 1-3-2 1-2 4-3 4-1-2h-1c-3 2-5 2-7 1l-1-1-1 1-2 1-3-1v-1l3-6v-1l-2 2c-2 4-4 5-5 6h-9l-1-1-1 1h-5c-1 0-2-3-1-6v-1l-1 1-5 7Zm38-2 1-2-1-3-2 3 1 2h1Zm21-2c2-1 3-6 2-6-2 0-5 4-5 6s1 2 3 0Zm-41 1c2-1 3-3 3-5l-1-2c-2 1-5 6-4 7h2Zm55-8 3-6-2 2-3 5 2-1Zm7-1 3-5-5 7 1-1 1-1Zm-50-2v-1l-1 1h1Z" fill="#000"/></svg>