<svg width="100" height="16" fill="none" xmlns="http://www.w3.org/2000/svg"><path d="m89 15 4-1v1h2V1h-2v5l-4-1c-3 0-5 2-5 5s1 5 5 5ZM50 5s-6 0-7 5c0 3 3 6 7 5 3 1 6-2 6-5s-3-5-6-5Zm7-4h2v14h-2V1Zm18 8 3-2c2 0 2 1 2 2v6h2V7c0-2-2-3-4-3l-3 2V5h-3v10h3V9Zm-7 5 1 1h2V9c0-4-3-4-5-4h-4l-1 3h2c0-1 1-2 3-2l2 2v1h-5l-3 3c0 2 2 4 4 3 2 1 4 0 4-1ZM33 9h5l2 2v4h3l-1-3c0-2 0-3-2-4 2 0 3-2 3-4 0-3-3-3-6-3h-6v14h2V9ZM0 1h24c3 0 5 1 5 4s-2 5-5 5H10v1h19v1H8V8h16c2 0 3-1 4-3-1-2-2-3-4-3H1v13H0V1Z" fill="#FF8200"/><path d="M4 13v2H3V4h22v4H9c-2 0-3 1-4 3 1 2 2 3 4 3h20v2H9c-2-1-4-1-5-3Z" fill="#FF8200"/><path d="M4 9c1-2 3-3 5-3h14H4v3Z" fill="#fff"/><path d="m100 2-1-1-2 1 2 2 1-2Z" fill="#FF8200"/><path d="M89 6c2 0 4 3 4 4s-2 3-4 3-3-2-3-3c0-2 1-4 3-4Zm-40 8c-2 0-3-2-3-4s1-3 3-3V6v1c3 0 4 1 4 3s-1 4-4 4Zm19-3c0 2-1 2-3 2l-2-1c0-1 2-2 5-2v1ZM33 3h5l2 2-2 2h-5V3Zm67-1-1 1-2-1 2-1 1 1Z" fill="#fff"/><path d="M98 4V3h1v1-2h-1v2Z" fill="#FF8200"/><path d="M99 2c0-1 0 0 0 0v1h-1V2h1Z" fill="#fff"/></svg>