<svg width="150" height="30" fill="none" xmlns="http://www.w3.org/2000/svg"><path d="m1 23-1-5 1-5 3-4c2-2 5-3 8-3l9 2c3 2 5 5 5 8 0 5-1 8-4 10-2 2-5 3-9 3-6 0-10-2-12-6Zm2-6c0 7 4 10 10 10 3 0 6-1 8-3s3-4 3-7-2-5-4-6c-2-2-4-2-8-2-2 0-4 0-6 2l-3 6ZM44 21l-1-7h-4l-4 2-4 3v10h-2l-1-7a115 115 0 0 1 1-11l1-1 1 2v3l10-4c3 0 5 2 5 6v13h-2v-9ZM78 23c2-4 3-12 5-23 2 0 3 1 3 2v2a267 267 0 0 1-5 25l-3 1v-1a148 148 0 0 0-7-13l-3-4a83 83 0 0 0-7 18h-3L48 7V6h4v3a75 75 0 0 1 3 5l1 3a159 159 0 0 0 4 6 271 271 0 0 1 7-16c2 0 4 2 6 7a144 144 0 0 1 5 9ZM103 23a13 13 0 0 1-10 6h-4l-2-3a7 7 0 0 1 1-4l1-3 3-3 7-4a9 9 0 0 1 3 0c2 0 3 1 3 3l1 6a737 737 0 0 0 1 9h-3a36 36 0 0 1 0-4l-1-3Zm0-6-2-2h-1l-6 3-2 2-2 4c0 2 1 3 3 3l7-3 2-3 1-4ZM109 15v-2h1v-1l1 1 7 12 1-2a493 493 0 0 0 9-12v2a1715 1715 0 0 1-9 17l-2-1-2-4-6-10ZM138 27l11-3h1v1c-1 2-3 3-6 4l-9 1c-3-1-5-3-5-5v-2a12 12 0 0 1 3-8l4-3 4-1a11 11 0 0 1 8 4 3 3 0 0 1 0 2c0 2 0 3-2 3h-8l-5 1-1 2c1 3 3 4 5 4Zm7-12-1-1h-4l-3 1c-2 1-2 2-2 3h4l6-1 1-1-1-1Z" fill="#F8F1EA"/></svg>