<svg width="100" height="44" fill="none" xmlns="http://www.w3.org/2000/svg"><path d="M85 41h1v-1h-1v1Zm-1 1v-2h3l-1 1v1h1-1l-1-1v1h-1Zm2-3-2 1-1 1 1 1 2 1 1-1 1-1-1-1-1-1Zm-1 0h2l1 2-1 2-1 1-2-1-1-2v-1l1-1h1ZM15 1h15v18L15 1Z" fill="#000"/><path d="M25 13v18l-5-5h-4v-9h4l5-4ZM30 25v18l-15 1 15-19ZM33 22v22l16-1-16-21ZM45 1h16v21L45 1ZM65 1v43l16-1V1H65ZM83 1v24h5c8 0 12-5 12-12S96 0 88 1h-5ZM51 44l2-1c10 0 12-11 9-15L44 4c-2-2 0-3 0-3h-2c-10 0-12 11-9 15l18 24c2 2 0 4 0 4ZM15 43V1H0v43l15-1Z" fill="#000"/></svg>