<svg width="100" height="64" fill="none" xmlns="http://www.w3.org/2000/svg"><path d="M23 16a4 4 0 1 0 0-7 4 4 0 0 0 0 7Z" fill="#000"/><path d="M18 19v-7c0-2-2-4-4-4L4 11c0 1-4 2-4 6v29s0 3 3 3l2-1 4-2s2-1 2 2v16l6-2V48c0-1 0-6 3-8 0 0 1-1 2 1l2 1s1 1 2-1l2-3 1-1s2 0 2 3l9-3s4-1 5-4l2-1s2 0 1 2l9-3c1 0 4-1 4-4l-2-4-6-4v-2l2-1 2 1 1 1h1l2-1s2-1 2 1v5c0 1 2 5 5 5l2-1 3-1s5-1 6-4l2-1s2-1 2 2l4-2V10s0-2 2-2l1 1v25c0 1 1 3 3 3 0 0 7 0 7-6v-2l-2 1v2l-1 1-2-1V1l-1-1-2 2-3 3-2-1V2l-5 2v5c0 2-1 9-3 9l-2-1v-7c1-1 0-4-2-4l-2 1v14c0 1-1 3-3 3 0 0-2 0-2-2V12s-1-1 1-2V8s-5 1-7 6h-2l-1-1v-2l-8 3s-4 1-4 5c0 0 0 2 2 3l6 4v2l-2 2-2-1s0-2-2-2l-3 2-1-2v-7s-1-3-3-3l-3 1v3s2-1 2 1v10s0 3-3 3c-2 0-2-2-2-2V1l-5 2v22s0 7-2 9c-1 1-3 1-3-1V22l-5 2v4c0 1-1 10-3 10l-1-2V25l-5 2v6c0 2 0 11-6 11l-1-2V18s0-3 2-4l3-1s2 0 2 2v6l6-2ZM96 1l2-1 1 1-1 2-2-2Zm2-1-2 1 2 2 1-2-1-1Zm-1 2V1h1v1h-1Zm0-1h1-1Z" fill="#000"/></svg>