<svg width="100" height="19" fill="none" xmlns="http://www.w3.org/2000/svg"><path d="m1 15-1-3 1-4 1-2c2-2 4-2 6-2l6 1c2 2 3 3 3 5l-2 7-6 2c-5 0-7-2-8-4Zm1-4c0 4 2 6 7 6l5-2 2-4c0-2-1-3-3-4L8 5 4 7l-2 4ZM29 13V9h-3l-3 1-2 2v7h-2v-5a69 69 0 0 1 0-7l1-1 1 2v2l7-3 3 4v8h-2v-6ZM52 15l3-15 2 1v1a161 161 0 0 1-3 17h-2v-1a91 91 0 0 0-5-8l-2-2a51 51 0 0 0-4 11h-2L32 4h2l1 1a46 46 0 0 1 2 4 25927 25927 0 0 0 3 6 167 167 0 0 1 5-11l4 5a90 90 0 0 1 3 6ZM69 15a8 8 0 0 1-7 4h-1l-1-1h-1l-1-1a4 4 0 0 1 0-3l1-2 2-2 5-2a7 7 0 0 1 2 0c1 0 2 0 2 2l1 3a480 480 0 0 0 0 6h-1a22 22 0 0 1-1-2v-2Zm0-4-2-2-4 2-2 2-1 2 2 2 4-2 2-2 1-2ZM73 9V8h1l5 8v-1a297 297 0 0 0 6-8l1 1a1034 1034 0 0 1-8 10l-2-2-3-7ZM92 17l7-2h1v1l-4 2-6 1-3-3v-4l1-2 3-2 3-1a8 8 0 0 1 5 2 2 2 0 0 1 1 2l-2 2h-5l-3 1-1 1c0 1 1 2 3 2Zm5-8h-4l-1 1-2 1h7l1-1-1-1Z" fill="#C62100"/></svg>