<svg width="101" height="29" fill="none" xmlns="http://www.w3.org/2000/svg"><path d="M38 6s-2 0-2-3 3-3 3-3h3v1h4l6-1a6241 6241 0 0 0 1 17h-1 1v2l-1 1h-5l-1-2 2-1v-2h-4v2l1 1-1 2h-5l-1-1 2-2v-3h-1s-4 1-4-4c-1-4 3-4 3-4Zm10-1s-4 0-4 6h4V5Z" fill="#000"/><path d="M24 1h3l1-1h1s6 0 6 6c0 3-4 6-4 6v4l2 5 3-1c1 0 5 0 4 5 0 4-4 4-4 4l-4-2-4-6-2-6h-1v3l1 1-1 1h-5l-1-1 2-2-1-6V3c-2 0-1-2-1-2-1 0-1-1 1-1l4 1Zm-4-1Zm5 4v6l3-1 1-3-1-2h-3Z" fill="#000"/><path d="M10 0c6 0 9 6 8 11 0 4-3 10-9 10-5 0-9-6-8-10C1 6 4 0 10 0Zm0 3c-3 0-3 9 0 9 2 0 3-9 0-9ZM89 17l-1 2v1h10l1-1 1-4s1-1-1-1l-2 2-2 1h-2v-5h1l2 1 1-1 1-3-2-2-1 1h-2V5h2l3 1s0 2 2 2V4l-1-1V2l-1-1h-9l-1 1 1 1v14M81 21h-2c-1 0-4 1-4 4s2 4 4 4l5-2 2-5V12s2-1 1-2l-1-1h-5l-1 1 2 2v3h-1l-3-1-1-4c0-1 1-5 3-5l3 1 1 1 2-1-1-1V1l-2-1-1 1h-3s-3 0-5 2c-1 1-2 3-2 7-1 3 0 5 2 7 0 0 2 3 7 3v1M56 17s-2 1-1 2v1h6V5l1-1 2 2 1 3-1 5-2 4v1l1 1h6v-1l-1-2-1 1h-1v-1l3-4 1-4c1-3-1-5-1-5l-3-3-3-1-3 1h-1l-3-1-1 2 1 2v13" fill="#000"/><path d="M45 20h-2a8 8 0 0 0-2 0h-2v-1l1-1 1-1v-2l-1-1s-4 0-4-4c-1-1 0-2 1-2l1-1 2-1h-2l-1-3 1-2a3 3 0 0 1 1 0h3l1 1h5l4-1c1 0 2 0 1 1v1l-1 1v14h1v2h-6v-1l1-1v-3h-4v3h1v2Zm2-15-1 1c-1 1-2 2-2 5l1 1h4l-1-7h-1" fill="#FF8028"/><path d="m26 1 1-1h3l1 1c2 0 3 2 3 5s-4 5-4 5v5l3 5v-1h3c1 0 4 0 3 4l-1 4a4 4 0 0 1-2 0h-2l-3-2-2-3-1-3-2-5v-1h-1l-1 1v1a24 24 0 0 0 0 1v1h1v1h-6l1-2h1V2h-1l-1-1V0h1l1 1a10 10 0 0 0 5 0Zm-2 9h1l3-1 1-3c0-2-1-3-2-3h-3v7ZM17 11c0 5-3 10-8 10s-9-6-8-10C1 7 4 1 9 1c6 0 9 6 8 10ZM6 8c0 2 1 5 3 5 4 0 3-9 0-10-2 0-3 3-3 5M56 10V3l-1-2 1-1 2 1h1l4-1h1l1 1 3 3a8 8 0 0 1 1 4v2l-1 2-2 4h-1v1l1 1h1l1-1v2h-6v-1a16 16 0 0 0 2-6l1-3-1-3V5l-2-2a2 2 0 0 0-2 1v15h-5v-1l1-1v-7ZM81 21v-1h-1l-4-1a6 6 0 0 1-2-2c-2-2-3-4-2-6a11 11 0 0 1 1-6l1-1a6 6 0 0 1 5-2h2l2-1h1v1l1 4-1 1-2-1-2-1c-2 0-3 2-3 3l-1 3 1 4 3 1h1a1 1 0 0 0 1-1v-3h-1l-1-1 1-1h5v2h-1v10l-1 5-5 2c-3 0-4-1-4-4 0-2 3-3 3-3h3v-1M89 10a1737 1737 0 0 0 0-7V2h-1V1h11v2h1v3h1-1v1l-1-1h-1V5l-2-1a2 2 0 0 0-1 0h-3v4h3l1-1 1 1v3l-1 1-1-1h-3v6a331 331 0 0 0 6-1v-1l1-1h1v1a576 576 0 0 0-1 4H88v-1l1-1v-7" fill="#FF8028"/></svg>