<svg width="100" height="60" fill="none" xmlns="http://www.w3.org/2000/svg"><path d="M1 57a8224 8224 0 0 1 20-39H11L0 19A757 757 0 0 1 81 0a922 922 0 0 1-60 32l-3 9-1 8-7 5a3808 3808 0 0 1-9 3Z" fill="#000"/><path d="M26 26a6659 6659 0 0 1 15-9h-9c-8 0-8 0-8 2l-1 5-1 4 4-2Z" fill="#fff"/><path d="M63 58 51 48l-9-7-2 1-3 2 2-8 3-8 1 2a753 753 0 0 1 20 28Zm16-8 5-15 2-9-1-3-1-3h3c3 1 3 1 6-2l7-5a4910 4910 0 0 1-21 37Zm-57-8c5-12 5-13 7-13a91 91 0 0 0 10-1l-3 3c-4 2-4 3-3 3 4 2 4 2 0 5l-4 3 2 2 2 2h-2l-7 1-5 1 3-6Zm29-8-5-7 4 1 5 2 7-8L77 5a560 560 0 0 1-20 36l-6-7Zm15-3 4-9 6-1h5l-3 2-3 3 2 1 2 1-4 3-4 3 2 2 3 2-6 1-7 1c-2 0-2 0 3-9Z" fill="#000"/></svg>