<svg width="22" height="22" fill="none" xmlns="http://www.w3.org/2000/svg"><path d="M11 1C5.477 1 1 5.477 1 11s4.477 10 10 10 10-4.477 10-10S16.523 1 11 1Z" stroke="#000" stroke-linecap="round" stroke-linejoin="round"/><path d="M3 18s2.307-2.997 8-2.997c5.692 0 8 2.997 8 2.997H3Zm8-6.682c.823 0 1.613-.333 2.195-.925.582-.593.91-1.396.91-2.234 0-.838-.328-1.641-.91-2.234A3.078 3.078 0 0 0 10.999 5c-.823 0-1.613.333-2.195.925a3.187 3.187 0 0 0-.91 2.234c0 .838.328 1.641.91 2.234a3.078 3.078 0 0 0 2.195.925v0Z" stroke="#000" stroke-linecap="round" stroke-linejoin="round"/></svg>